<svg width="23" height="23" viewBox="0 0 23 23" fill="none" xmlns="http://www.w3.org/2000/svg">
<path d="M11.555 16.5794L15.8882 19.3306C16.4471 19.6831 17.1349 19.1587 16.9715 18.5139L15.7163 13.5788C15.6823 13.442 15.6877 13.2984 15.7319 13.1646C15.776 13.0307 15.857 12.912 15.9656 12.8222L19.8518 9.58089C20.359 9.15961 20.1011 8.30844 19.4391 8.26545L14.3665 7.93874C14.2281 7.93069 14.095 7.88249 13.9835 7.80004C13.8721 7.71759 13.787 7.60446 13.7388 7.47447L11.8473 2.71137C11.7973 2.57372 11.7061 2.45482 11.5861 2.37079C11.4661 2.28677 11.3232 2.2417 11.1767 2.2417C11.0303 2.2417 10.8873 2.28677 10.7674 2.37079C10.6474 2.45482 10.5562 2.57372 10.5061 2.71137L8.61463 7.47447C8.56642 7.60446 8.48139 7.71759 8.36993 7.80004C8.25847 7.88249 8.1254 7.93069 7.987 7.93874L2.91438 8.26545C2.25236 8.30844 1.99443 9.15961 2.50169 9.58089L6.38783 12.8222C6.49645 12.912 6.57749 13.0307 6.6216 13.1646C6.66571 13.2984 6.67111 13.442 6.63716 13.5788L5.47648 18.1528C5.27874 18.9265 6.10411 19.5542 6.76613 19.1329L10.7984 16.5794C10.9115 16.5075 11.0427 16.4693 11.1767 16.4693C11.3107 16.4693 11.4419 16.5075 11.555 16.5794V16.5794Z" stroke="#E13C5A" stroke-width="1.37563" stroke-linecap="round" stroke-linejoin="round"/>
</svg>
