<svg width="20" height="20" viewBox="0 0 20 20" fill="none" xmlns="http://www.w3.org/2000/svg">
<path d="M10.2627 15.5794L14.5959 18.3306C15.1547 18.6831 15.8425 18.1587 15.6792 17.5139L14.4239 12.5788C14.39 12.442 14.3954 12.2984 14.4395 12.1646C14.4836 12.0307 14.5646 11.912 14.6733 11.8222L18.5594 8.58089C19.0667 8.15961 18.8087 7.30844 18.1467 7.26545L13.0741 6.93874C12.9357 6.93069 12.8026 6.88249 12.6912 6.80004C12.5797 6.71759 12.4947 6.60446 12.4465 6.47447L10.555 1.71137C10.5049 1.57372 10.4137 1.45482 10.2937 1.37079C10.1738 1.28677 10.0308 1.2417 9.88437 1.2417C9.7379 1.2417 9.59498 1.28677 9.47501 1.37079C9.35503 1.45482 9.26382 1.57372 9.21375 1.71137L7.32227 6.47447C7.27406 6.60446 7.18903 6.71759 7.07757 6.80004C6.96611 6.88249 6.83305 6.93069 6.69464 6.93874L1.62202 7.26545C0.960002 7.30844 0.702072 8.15961 1.20933 8.58089L5.09548 11.8222C5.20409 11.912 5.28513 12.0307 5.32924 12.1646C5.37335 12.2984 5.37875 12.442 5.34481 12.5788L4.18412 17.1528C3.98638 17.9265 4.81175 18.5542 5.47377 18.1329L9.50607 15.5794C9.61915 15.5075 9.75037 15.4693 9.88437 15.4693C10.0184 15.4693 10.1496 15.5075 10.2627 15.5794Z" fill="#E13C5A" stroke="#E13C5A" stroke-width="1.37563" stroke-linecap="round" stroke-linejoin="round"/>
</svg>
