<svg width="131" height="45" viewBox="0 0 131 45" fill="none" xmlns="http://www.w3.org/2000/svg">
<g filter="url(#filter0_d_1_978)">
<rect x="9.2464" y="4.78162" width="112.251" height="26.8522" rx="2.96422" fill="white" shape-rendering="crispEdges"/>
<rect x="9.98746" y="5.52267" width="110.769" height="25.3701" rx="2.22317" stroke="#9A54BC" stroke-width="1.48211" shape-rendering="crispEdges"/>
<path d="M33.0515 21.1812V22.2077H29.0639V21.1812H33.0515ZM29.4302 14.6968V22.2077H28.1354V14.6968H29.4302ZM32.5305 17.8332V18.8443H29.0639V17.8332H32.5305ZM33.0257 14.6968V15.7285H29.0639V14.6968H33.0257ZM34.9344 16.6261L35.9971 18.4781L37.0804 16.6261H38.4474L36.7554 19.3653L38.5145 22.2077H37.1474L36.0125 20.2784L34.8776 22.2077H33.5055L35.2594 19.3653L33.5725 16.6261H34.9344ZM40.5469 17.6991V24.3537H39.3037V16.6261H40.4489L40.5469 17.6991ZM44.1837 19.3653V19.4737C44.1837 19.8795 44.1356 20.256 44.0393 20.6034C43.9464 20.9473 43.8072 21.2482 43.6215 21.5061C43.4392 21.7606 43.2139 21.9584 42.9457 22.0994C42.6774 22.2404 42.3679 22.3109 42.0171 22.3109C41.6698 22.3109 41.3654 22.2473 41.1041 22.12C40.8461 21.9893 40.6278 21.8053 40.4489 21.5681C40.2701 21.3308 40.1257 21.0522 40.0156 20.7324C39.909 20.4091 39.8333 20.0549 39.7886 19.6697V19.2518C39.8333 18.8426 39.909 18.4712 40.0156 18.1376C40.1257 17.804 40.2701 17.5168 40.4489 17.2761C40.6278 17.0354 40.8461 16.8497 41.1041 16.719C41.362 16.5883 41.6629 16.5229 42.0068 16.5229C42.3576 16.5229 42.6688 16.5917 42.9405 16.7293C43.2122 16.8634 43.4409 17.056 43.6266 17.3071C43.8123 17.5547 43.9516 17.8539 44.0445 18.2046C44.1373 18.552 44.1837 18.9389 44.1837 19.3653ZM42.9405 19.4737V19.3653C42.9405 19.1074 42.9165 18.8684 42.8683 18.6483C42.8202 18.4247 42.7445 18.2287 42.6413 18.0602C42.5382 17.8917 42.4057 17.761 42.2441 17.6682C42.0859 17.5719 41.895 17.5237 41.6715 17.5237C41.4514 17.5237 41.2623 17.5615 41.1041 17.6372C40.9459 17.7094 40.8135 17.8109 40.7069 17.9416C40.6002 18.0722 40.5177 18.2253 40.4592 18.4007C40.4008 18.5726 40.3595 18.7601 40.3354 18.963V19.9637C40.3767 20.2113 40.4472 20.4383 40.5469 20.6447C40.6467 20.851 40.7877 21.0161 40.9699 21.1399C41.1557 21.2603 41.3929 21.3204 41.6818 21.3204C41.9054 21.3204 42.0962 21.2723 42.2544 21.176C42.4126 21.0797 42.5416 20.9473 42.6413 20.7788C42.7445 20.6068 42.8202 20.4091 42.8683 20.1855C42.9165 19.962 42.9405 19.7247 42.9405 19.4737ZM46.5722 14.2841V22.2077H45.3238V14.2841H46.5722ZM47.6967 19.4788V19.3602C47.6967 18.9578 47.7552 18.5847 47.8721 18.2408C47.9891 17.8934 48.1576 17.5925 48.3777 17.338C48.6012 17.0801 48.8729 16.8806 49.1927 16.7396C49.516 16.5952 49.8806 16.5229 50.2864 16.5229C50.6956 16.5229 51.0601 16.5952 51.38 16.7396C51.7033 16.8806 51.9767 17.0801 52.2002 17.338C52.4237 17.5925 52.594 17.8934 52.7109 18.2408C52.8278 18.5847 52.8863 18.9578 52.8863 19.3602V19.4788C52.8863 19.8812 52.8278 20.2543 52.7109 20.5982C52.594 20.9421 52.4237 21.2431 52.2002 21.501C51.9767 21.7555 51.705 21.9549 51.3851 22.0994C51.0653 22.2404 50.7025 22.3109 50.2967 22.3109C49.8874 22.3109 49.5212 22.2404 49.1979 22.0994C48.8781 21.9549 48.6064 21.7555 48.3828 21.501C48.1593 21.2431 47.9891 20.9421 47.8721 20.5982C47.7552 20.2543 47.6967 19.8812 47.6967 19.4788ZM48.94 19.3602V19.4788C48.94 19.7299 48.9658 19.9672 49.0173 20.1907C49.0689 20.4142 49.1498 20.6103 49.2598 20.7788C49.3699 20.9473 49.5109 21.0797 49.6828 21.176C49.8548 21.2723 50.0594 21.3204 50.2967 21.3204C50.5271 21.3204 50.7266 21.2723 50.8951 21.176C51.067 21.0797 51.208 20.9473 51.3181 20.7788C51.4281 20.6103 51.5089 20.4142 51.5605 20.1907C51.6156 19.9672 51.6431 19.7299 51.6431 19.4788V19.3602C51.6431 19.1126 51.6156 18.8787 51.5605 18.6586C51.5089 18.4351 51.4264 18.2373 51.3129 18.0654C51.2029 17.8934 51.0619 17.7593 50.8899 17.663C50.7214 17.5633 50.5202 17.5134 50.2864 17.5134C50.0525 17.5134 49.8496 17.5633 49.6776 17.663C49.5091 17.7593 49.3699 17.8934 49.2598 18.0654C49.1498 18.2373 49.0689 18.4351 49.0173 18.6586C48.9658 18.8787 48.94 19.1126 48.94 19.3602ZM55.1767 17.6888V22.2077H53.9335V16.6261H55.12L55.1767 17.6888ZM56.8842 16.59L56.8739 17.7455C56.7982 17.7318 56.7157 17.7215 56.6263 17.7146C56.5403 17.7077 56.4543 17.7043 56.3683 17.7043C56.1551 17.7043 55.9677 17.7352 55.8061 17.7971C55.6444 17.8556 55.5086 17.9416 55.3985 18.055C55.2919 18.1651 55.2094 18.2992 55.1509 18.4574C55.0925 18.6156 55.0581 18.7927 55.0477 18.9888L54.764 19.0094C54.764 18.6586 54.7984 18.3336 54.8672 18.0344C54.936 17.7352 55.0391 17.4721 55.1767 17.2452C55.3177 17.0182 55.4931 16.8411 55.7029 16.7138C55.9161 16.5866 56.162 16.5229 56.4406 16.5229C56.5162 16.5229 56.597 16.5298 56.683 16.5436C56.7724 16.5573 56.8395 16.5728 56.8842 16.59ZM60.0206 22.3109C59.6079 22.3109 59.2348 22.2438 58.9012 22.1097C58.5711 21.9721 58.2891 21.7813 58.0552 21.5371C57.8248 21.2929 57.6477 21.0058 57.5239 20.6756C57.4001 20.3455 57.3382 19.9895 57.3382 19.6078V19.4014C57.3382 18.9647 57.4018 18.5692 57.529 18.215C57.6563 17.8607 57.8334 17.5581 58.0604 17.3071C58.2873 17.0526 58.5556 16.8583 58.8651 16.7241C59.1746 16.59 59.5099 16.5229 59.871 16.5229C60.27 16.5229 60.619 16.59 60.9182 16.7241C61.2174 16.8583 61.465 17.0474 61.6611 17.2916C61.8605 17.5323 62.0084 17.8195 62.1047 18.1531C62.2044 18.4867 62.2543 18.8546 62.2543 19.257V19.7883H57.9417V18.8959H61.0266V18.7979C61.0197 18.5743 60.975 18.3646 60.8924 18.1685C60.8133 17.9725 60.6912 17.8143 60.5262 17.6939C60.3611 17.5736 60.141 17.5134 59.8659 17.5134C59.6595 17.5134 59.4755 17.5581 59.3139 17.6475C59.1557 17.7335 59.0233 17.859 58.9167 18.0241C58.8101 18.1892 58.7275 18.3886 58.6691 18.6225C58.6141 18.8529 58.5865 19.1126 58.5865 19.4014V19.6078C58.5865 19.852 58.6192 20.0789 58.6846 20.2887C58.7533 20.4951 58.8531 20.6756 58.9838 20.8304C59.1144 20.9851 59.2726 21.1072 59.4583 21.1966C59.6441 21.2826 59.8556 21.3256 60.0928 21.3256C60.392 21.3256 60.6586 21.2654 60.8924 21.145C61.1263 21.0247 61.3292 20.8544 61.5011 20.6343L62.1563 21.2689C62.0359 21.4442 61.8794 21.6128 61.6869 21.7744C61.4943 21.9326 61.2587 22.0616 60.9801 22.1613C60.705 22.261 60.3852 22.3109 60.0206 22.3109ZM68.8315 19.4066H66.8764V18.38H68.8315C69.172 18.38 69.4471 18.325 69.6569 18.215C69.8667 18.1049 70.0197 17.9536 70.116 17.761C70.2157 17.565 70.2656 17.3414 70.2656 17.0904C70.2656 16.8531 70.2157 16.6313 70.116 16.4249C70.0197 16.2152 69.8667 16.0466 69.6569 15.9194C69.4471 15.7921 69.172 15.7285 68.8315 15.7285H67.2736V22.2077H65.9788V14.6968H68.8315C69.4127 14.6968 69.9062 14.8 70.312 15.0063C70.7213 15.2092 71.0325 15.4912 71.2457 15.8523C71.459 16.21 71.5656 16.6192 71.5656 17.0801C71.5656 17.565 71.459 17.9811 71.2457 18.3285C71.0325 18.6758 70.7213 18.9423 70.312 19.128C69.9062 19.3137 69.4127 19.4066 68.8315 19.4066ZM73.8508 17.6888V22.2077H72.6076V16.6261H73.7941L73.8508 17.6888ZM75.5583 16.59L75.548 17.7455C75.4723 17.7318 75.3898 17.7215 75.3004 17.7146C75.2144 17.7077 75.1284 17.7043 75.0425 17.7043C74.8292 17.7043 74.6418 17.7352 74.4802 17.7971C74.3185 17.8556 74.1827 17.9416 74.0726 18.055C73.966 18.1651 73.8835 18.2992 73.825 18.4574C73.7666 18.6156 73.7322 18.7927 73.7219 18.9888L73.4381 19.0094C73.4381 18.6586 73.4725 18.3336 73.5413 18.0344C73.6101 17.7352 73.7133 17.4721 73.8508 17.2452C73.9918 17.0182 74.1672 16.8411 74.377 16.7138C74.5902 16.5866 74.8361 16.5229 75.1147 16.5229C75.1903 16.5229 75.2712 16.5298 75.3571 16.5436C75.4465 16.5573 75.5136 16.5728 75.5583 16.59ZM75.9658 19.4788V19.3602C75.9658 18.9578 76.0243 18.5847 76.1412 18.2408C76.2582 17.8934 76.4267 17.5925 76.6468 17.338C76.8703 17.0801 77.142 16.8806 77.4618 16.7396C77.7851 16.5952 78.1496 16.5229 78.5555 16.5229C78.9647 16.5229 79.3292 16.5952 79.6491 16.7396C79.9724 16.8806 80.2458 17.0801 80.4693 17.338C80.6928 17.5925 80.8631 17.8934 80.98 18.2408C81.0969 18.5847 81.1554 18.9578 81.1554 19.3602V19.4788C81.1554 19.8812 81.0969 20.2543 80.98 20.5982C80.8631 20.9421 80.6928 21.2431 80.4693 21.501C80.2458 21.7555 79.9741 21.9549 79.6542 22.0994C79.3344 22.2404 78.9716 22.3109 78.5658 22.3109C78.1565 22.3109 77.7903 22.2404 77.467 22.0994C77.1472 21.9549 76.8755 21.7555 76.6519 21.501C76.4284 21.2431 76.2582 20.9421 76.1412 20.5982C76.0243 20.2543 75.9658 19.8812 75.9658 19.4788ZM77.2091 19.3602V19.4788C77.2091 19.7299 77.2349 19.9672 77.2864 20.1907C77.338 20.4142 77.4188 20.6103 77.5289 20.7788C77.6389 20.9473 77.7799 21.0797 77.9519 21.176C78.1239 21.2723 78.3285 21.3204 78.5658 21.3204C78.7962 21.3204 78.9957 21.2723 79.1642 21.176C79.3361 21.0797 79.4771 20.9473 79.5872 20.7788C79.6972 20.6103 79.778 20.4142 79.8296 20.1907C79.8847 19.9672 79.9122 19.7299 79.9122 19.4788V19.3602C79.9122 19.1126 79.8847 18.8787 79.8296 18.6586C79.778 18.4351 79.6955 18.2373 79.582 18.0654C79.472 17.8934 79.331 17.7593 79.159 17.663C78.9905 17.5633 78.7893 17.5134 78.5555 17.5134C78.3216 17.5134 78.1187 17.5633 77.9467 17.663C77.7782 17.7593 77.6389 17.8934 77.5289 18.0654C77.4188 18.2373 77.338 18.4351 77.2864 18.6586C77.2349 18.8787 77.2091 19.1126 77.2091 19.3602ZM85.6021 21.0522V14.2841H86.8505V22.2077H85.7207L85.6021 21.0522ZM81.9704 19.4788V19.3705C81.9704 18.9475 82.0203 18.5623 82.12 18.215C82.2198 17.8642 82.3642 17.5633 82.5534 17.3122C82.7425 17.0577 82.9729 16.8634 83.2446 16.7293C83.5163 16.5917 83.8224 16.5229 84.1628 16.5229C84.4999 16.5229 84.7956 16.5883 85.0501 16.719C85.3046 16.8497 85.5213 17.0371 85.7001 17.2813C85.8789 17.522 86.0217 17.8109 86.1283 18.1479C86.2349 18.4815 86.3105 18.8529 86.3553 19.2622V19.6078C86.3105 20.0067 86.2349 20.3713 86.1283 20.7014C86.0217 21.0316 85.8789 21.317 85.7001 21.5577C85.5213 21.7985 85.3029 21.9842 85.045 22.1149C84.7905 22.2455 84.493 22.3109 84.1525 22.3109C83.8155 22.3109 83.5111 22.2404 83.2395 22.0994C82.9712 21.9584 82.7425 21.7606 82.5534 21.5061C82.3642 21.2517 82.2198 20.9525 82.12 20.6086C82.0203 20.2612 81.9704 19.8846 81.9704 19.4788ZM83.2137 19.3705V19.4788C83.2137 19.7333 83.236 19.9706 83.2807 20.1907C83.3289 20.4108 83.4028 20.6051 83.5025 20.7736C83.6023 20.9387 83.7312 21.0694 83.8894 21.1657C84.0511 21.2585 84.2437 21.305 84.4672 21.305C84.7492 21.305 84.9813 21.2431 85.1636 21.1193C85.3459 20.9954 85.4886 20.8287 85.5918 20.6189C85.6984 20.4056 85.7706 20.1684 85.8084 19.907V18.9733C85.7878 18.7704 85.7448 18.5812 85.6795 18.4058C85.6176 18.2304 85.5333 18.0774 85.4267 17.9467C85.3201 17.8126 85.1877 17.7094 85.0295 17.6372C84.8747 17.5615 84.6907 17.5237 84.4775 17.5237C84.2505 17.5237 84.058 17.5719 83.8998 17.6682C83.7416 17.7644 83.6109 17.8969 83.5077 18.0654C83.408 18.2339 83.334 18.4299 83.2859 18.6534C83.2377 18.877 83.2137 19.116 83.2137 19.3705ZM91.5087 20.8923V16.6261H92.7571V22.2077H91.5809L91.5087 20.8923ZM91.6841 19.7316L92.1019 19.7213C92.1019 20.0961 92.0607 20.4418 91.9781 20.7582C91.8956 21.0711 91.7683 21.3445 91.5964 21.5784C91.4244 21.8088 91.2043 21.9893 90.9361 22.12C90.6678 22.2473 90.3463 22.3109 89.9714 22.3109C89.6997 22.3109 89.4504 22.2713 89.2234 22.1922C88.9964 22.1131 88.8004 21.9911 88.6353 21.826C88.4737 21.6609 88.3482 21.446 88.2588 21.1812C88.1694 20.9163 88.1246 20.6 88.1246 20.232V16.6261H89.3679V20.2423C89.3679 20.4452 89.3919 20.6154 89.4401 20.753C89.4882 20.8871 89.5536 20.9954 89.6361 21.078C89.7187 21.1605 89.8149 21.219 89.925 21.2534C90.035 21.2878 90.152 21.305 90.2758 21.305C90.63 21.305 90.9086 21.2362 91.1115 21.0986C91.3178 20.9576 91.464 20.7685 91.55 20.5312C91.6394 20.2939 91.6841 20.0274 91.6841 19.7316ZM96.3113 21.3204C96.5142 21.3204 96.6965 21.2809 96.8581 21.2018C97.0232 21.1193 97.1556 21.0058 97.2554 20.8613C97.3585 20.7169 97.4153 20.5501 97.4256 20.3609H98.5966C98.5897 20.722 98.4831 21.0505 98.2768 21.3462C98.0704 21.642 97.797 21.8776 97.4565 22.053C97.1161 22.2249 96.7395 22.3109 96.3268 22.3109C95.9004 22.3109 95.5289 22.2387 95.2126 22.0942C94.8962 21.9463 94.6331 21.7434 94.4233 21.4855C94.2135 21.2276 94.0553 20.9301 93.9487 20.5931C93.8455 20.256 93.7939 19.8949 93.7939 19.5098V19.3292C93.7939 18.944 93.8455 18.5829 93.9487 18.2459C94.0553 17.9055 94.2135 17.6063 94.4233 17.3483C94.6331 17.0904 94.8962 16.8892 95.2126 16.7448C95.5289 16.5969 95.8986 16.5229 96.3217 16.5229C96.7687 16.5229 97.1608 16.6124 97.4978 16.7912C97.8348 16.9666 98.0996 17.2125 98.2922 17.5289C98.4883 17.8418 98.5897 18.2064 98.5966 18.6225H97.4256C97.4153 18.4162 97.3637 18.2304 97.2708 18.0654C97.1814 17.8969 97.0542 17.7627 96.8891 17.663C96.7275 17.5633 96.5332 17.5134 96.3062 17.5134C96.0551 17.5134 95.8471 17.565 95.682 17.6682C95.5169 17.7679 95.3879 17.9055 95.2951 18.0808C95.2022 18.2528 95.1352 18.4471 95.0939 18.6638C95.0561 18.877 95.0372 19.0988 95.0372 19.3292V19.5098C95.0372 19.7402 95.0561 19.9637 95.0939 20.1804C95.1317 20.3971 95.1971 20.5914 95.2899 20.7633C95.3862 20.9318 95.5169 21.0677 95.682 21.1708C95.8471 21.2706 96.0568 21.3204 96.3113 21.3204ZM102.11 16.6261V17.534H98.9629V16.6261H102.11ZM99.8708 15.2591H101.114V20.6653C101.114 20.8373 101.138 20.9697 101.186 21.0625C101.238 21.1519 101.308 21.2121 101.398 21.2431C101.487 21.274 101.592 21.2895 101.712 21.2895C101.798 21.2895 101.881 21.2843 101.96 21.274C102.039 21.2637 102.103 21.2534 102.151 21.2431L102.156 22.1922C102.053 22.2232 101.932 22.2507 101.795 22.2748C101.661 22.2989 101.506 22.3109 101.331 22.3109C101.045 22.3109 100.792 22.261 100.572 22.1613C100.352 22.0581 100.18 21.8913 100.056 21.6609C99.9327 21.4305 99.8708 21.1244 99.8708 20.7427V15.2591Z" fill="#60267F"/>
</g>
<defs>
<filter id="filter0_d_1_978" x="0.442399" y="0.379616" width="129.859" height="44.4602" filterUnits="userSpaceOnUse" color-interpolation-filters="sRGB">
<feFlood flood-opacity="0" result="BackgroundImageFix"/>
<feColorMatrix in="SourceAlpha" type="matrix" values="0 0 0 0 0 0 0 0 0 0 0 0 0 0 0 0 0 0 127 0" result="hardAlpha"/>
<feOffset dy="4.402"/>
<feGaussianBlur stdDeviation="4.402"/>
<feComposite in2="hardAlpha" operator="out"/>
<feColorMatrix type="matrix" values="0 0 0 0 0 0 0 0 0 0 0 0 0 0 0 0 0 0 0.1 0"/>
<feBlend mode="normal" in2="BackgroundImageFix" result="effect1_dropShadow_1_978"/>
<feBlend mode="normal" in="SourceGraphic" in2="effect1_dropShadow_1_978" result="shape"/>
</filter>
</defs>
</svg>
